<?xml version="1.0" encoding="UTF-8"?><svg xmlns="http://www.w3.org/2000/svg" xmlns:xlink="http://www.w3.org/1999/xlink" contentScriptType="text/ecmascript" width="375" zoomAndPan="magnify" contentStyleType="text/css" viewBox="0 0 375 374.999991" height="374.999991" preserveAspectRatio="xMidYMid meet" version="1.0"><defs><clipPath id="clip-0"><path d="M 4.972656 73.59375 L 370.222656 73.59375 L 370.222656 291.09375 L 4.972656 291.09375 Z M 4.972656 73.59375 " clip-rule="nonzero"/></clipPath></defs><path fill="rgb(0%, 0%, 0%)" d="M 206.851562 130 C 188.953125 140.195312 175.875 157.890625 171.878906 178.8125 L 207.066406 198.667969 L 206.851562 130 " fill-opacity="1" fill-rule="nonzero"/><path fill="rgb(0%, 0%, 0%)" d="M 170.609375 191.828125 C 170.609375 191.996094 170.601562 192.167969 170.601562 192.335938 C 170.601562 213.984375 180.191406 233.390625 195.351562 246.53125 L 230.113281 225.964844 L 170.609375 191.828125 " fill-opacity="1" fill-rule="nonzero"/><path fill="rgb(0%, 0%, 0%)" d="M 219.160156 165.039062 L 278.464844 130.523438 C 267.832031 124.261719 255.4375 120.664062 242.210938 120.664062 C 240.457031 120.664062 238.71875 120.734375 236.996094 120.859375 C 230.648438 121.316406 224.53125 122.601562 218.746094 124.609375 L 219.019531 151.296875 L 219.160156 165.039062 " fill-opacity="1" fill-rule="nonzero"/><path fill="rgb(0%, 0%, 0%)" d="M 289.070312 138.140625 L 254.304688 158.710938 L 313.8125 192.847656 C 313.8125 192.675781 313.820312 192.507812 313.820312 192.335938 C 313.820312 170.6875 304.230469 151.285156 289.070312 138.140625 " fill-opacity="1" fill-rule="nonzero"/><path fill="rgb(0%, 0%, 0%)" d="M 277.535156 243.148438 L 277.570312 254.667969 C 282.828125 251.675781 287.671875 248.03125 291.988281 243.851562 C 302.371094 233.800781 309.722656 220.632812 312.539062 205.859375 L 277.355469 186.007812 L 277.535156 243.148438 " fill-opacity="1" fill-rule="nonzero"/><path fill="rgb(0%, 0%, 0%)" d="M 265.257812 219.632812 L 246.457031 230.578125 L 205.960938 254.152344 C 216.589844 260.410156 228.980469 264.003906 242.210938 264.003906 C 250.429688 264.003906 258.324219 262.613281 265.675781 260.066406 L 265.472656 240.257812 L 265.257812 219.632812 " fill-opacity="1" fill-rule="nonzero"/><g clip-path="url(#clip-0)"><path fill="rgb(0%, 0%, 0%)" d="M 136.238281 291.050781 L 365.824219 291.050781 C 368.25 291.050781 370.21875 289.082031 370.21875 286.652344 L 370.21875 103.394531 C 370.21875 100.277344 367.6875 97.742188 364.570312 97.742188 L 350.648438 97.742188 L 350.648438 95.015625 C 350.648438 91.894531 348.113281 89.359375 345 89.359375 L 310.28125 89.359375 C 307.164062 89.359375 304.632812 91.894531 304.632812 95.015625 L 304.632812 97.742188 L 293.109375 97.742188 L 293.109375 79.28125 C 293.109375 76.167969 290.578125 73.632812 287.464844 73.632812 L 188.679688 73.632812 C 185.566406 73.632812 183.03125 76.167969 183.03125 79.28125 L 183.03125 97.742188 L 9.375 97.742188 C 6.945312 97.742188 4.976562 99.710938 4.976562 102.144531 C 4.976562 104.574219 6.945312 106.542969 9.375 106.542969 L 186.179688 106.542969 C 189.292969 106.542969 191.828125 104.007812 191.828125 100.894531 L 191.828125 82.433594 L 284.316406 82.433594 L 284.316406 100.894531 C 284.316406 104.007812 286.851562 106.542969 289.964844 106.542969 L 307.777344 106.542969 C 310.894531 106.542969 313.425781 104.007812 313.425781 100.894531 L 313.425781 98.164062 L 341.855469 98.164062 L 341.855469 100.894531 C 341.855469 104.007812 344.386719 106.542969 347.5 106.542969 L 361.425781 106.542969 L 361.425781 282.25 L 136.238281 282.25 C 133.808594 282.25 131.839844 284.21875 131.839844 286.652344 C 131.839844 289.082031 133.808594 291.050781 136.238281 291.050781 " fill-opacity="1" fill-rule="nonzero"/></g><path fill="rgb(0%, 0%, 0%)" d="M 55.121094 241.820312 C 55.121094 244.253906 57.089844 246.222656 59.519531 246.222656 L 163.03125 246.222656 C 165.457031 246.222656 167.425781 244.253906 167.425781 241.820312 C 167.425781 239.390625 165.457031 237.421875 163.03125 237.421875 L 59.519531 237.421875 C 57.089844 237.421875 55.121094 239.390625 55.121094 241.820312 Z M 17.945312 198.667969 C 17.945312 201.097656 19.914062 203.066406 22.34375 203.066406 L 125.855469 203.066406 C 128.285156 203.066406 130.253906 201.097656 130.253906 198.667969 C 130.253906 196.234375 128.285156 194.265625 125.855469 194.265625 L 22.34375 194.265625 C 19.914062 194.265625 17.945312 196.234375 17.945312 198.667969 Z M 158.996094 147.253906 C 158.996094 144.824219 157.027344 142.851562 154.601562 142.851562 L 51.089844 142.851562 C 48.660156 142.851562 46.691406 144.824219 46.691406 147.253906 C 46.691406 149.683594 48.660156 151.65625 51.089844 151.65625 L 154.601562 151.65625 C 157.027344 151.65625 158.996094 149.683594 158.996094 147.253906 " fill-opacity="1" fill-rule="nonzero"/></svg>